<svg width="176" height="26" viewBox="0 0 176 26" fill="none" xmlns="http://www.w3.org/2000/svg">
<path d="M10.112 19L4.016 11.536V19H0.656V2.248H4.016V9.76L10.112 2.248H14.168L7.256 10.552L14.36 19H10.112Z" fill="#ED8E1F"/>
<path d="M28.9301 12.064C28.9301 12.544 28.8981 12.976 28.8341 13.36H19.1141C19.1941 14.32 19.5301 15.072 20.1221 15.616C20.7141 16.16 21.4421 16.432 22.3061 16.432C23.5541 16.432 24.4421 15.896 24.9701 14.824H28.5941C28.2101 16.104 27.4741 17.16 26.3861 17.992C25.2981 18.808 23.9621 19.216 22.3781 19.216C21.0981 19.216 19.9461 18.936 18.9221 18.376C17.9141 17.8 17.1221 16.992 16.5461 15.952C15.9861 14.912 15.7061 13.712 15.7061 12.352C15.7061 10.976 15.9861 9.768 16.5461 8.728C17.1061 7.688 17.8901 6.888 18.8981 6.328C19.9061 5.768 21.0661 5.488 22.3781 5.488C23.6421 5.488 24.7701 5.76 25.7621 6.304C26.7701 6.848 27.5461 7.624 28.0901 8.632C28.6501 9.624 28.9301 10.768 28.9301 12.064ZM25.4501 11.104C25.4341 10.24 25.1221 9.552 24.5141 9.04C23.9061 8.512 23.1621 8.248 22.2821 8.248C21.4501 8.248 20.7461 8.504 20.1701 9.016C19.6101 9.512 19.2661 10.208 19.1381 11.104H25.4501ZM34.7426 7.768C35.1746 7.064 35.7346 6.512 36.4226 6.112C37.1266 5.712 37.9266 5.512 38.8226 5.512V9.04H37.9346C36.8786 9.04 36.0786 9.288 35.5346 9.784C35.0066 10.28 34.7426 11.144 34.7426 12.376V19H31.3826V5.704H34.7426V7.768ZM42.7897 4.12C42.1817 4.12 41.6777 3.936 41.2777 3.568C40.8937 3.184 40.7017 2.712 40.7017 2.152C40.7017 1.592 40.8937 1.128 41.2777 0.759999C41.6777 0.375999 42.1817 0.183999 42.7897 0.183999C43.3817 0.183999 43.8697 0.375999 44.2537 0.759999C44.6377 1.128 44.8297 1.592 44.8297 2.152C44.8297 2.712 44.6377 3.184 44.2537 3.568C43.8697 3.936 43.3817 4.12 42.7897 4.12ZM44.4457 21.184C44.4457 22.656 44.0777 23.712 43.3417 24.352C42.6217 25.008 41.5817 25.336 40.2217 25.336H38.7337V22.48H39.6937C40.2057 22.48 40.5657 22.376 40.7737 22.168C40.9817 21.976 41.0857 21.656 41.0857 21.208V5.704H44.4457V21.184ZM46.9014 12.304C46.9014 10.96 47.1654 9.768 47.6934 8.728C48.2374 7.688 48.9654 6.888 49.8774 6.328C50.8054 5.768 51.8374 5.488 52.9734 5.488C53.9654 5.488 54.8294 5.688 55.5654 6.088C56.3174 6.488 56.9174 6.992 57.3654 7.6V5.704H60.7494V19H57.3654V17.056C56.9334 17.68 56.3334 18.2 55.5654 18.616C54.8134 19.016 53.9414 19.216 52.9494 19.216C51.8294 19.216 50.8054 18.928 49.8774 18.352C48.9654 17.776 48.2374 16.968 47.6934 15.928C47.1654 14.872 46.9014 13.664 46.9014 12.304ZM57.3654 12.352C57.3654 11.536 57.2054 10.84 56.8854 10.264C56.5654 9.672 56.1334 9.224 55.5894 8.92C55.0454 8.6 54.4614 8.44 53.8374 8.44C53.2134 8.44 52.6374 8.592 52.1094 8.896C51.5814 9.2 51.1494 9.648 50.8134 10.24C50.4934 10.816 50.3334 11.504 50.3334 12.304C50.3334 13.104 50.4934 13.808 50.8134 14.416C51.1494 15.008 51.5814 15.464 52.1094 15.784C52.6534 16.104 53.2294 16.264 53.8374 16.264C54.4614 16.264 55.0454 16.112 55.5894 15.808C56.1334 15.488 56.5654 15.04 56.8854 14.464C57.2054 13.872 57.3654 13.168 57.3654 12.352ZM85.31 19.216C84.03 19.216 82.878 18.936 81.854 18.376C80.83 17.8 80.022 16.992 79.43 15.952C78.854 14.912 78.566 13.712 78.566 12.352C78.566 10.992 78.862 9.792 79.454 8.752C80.062 7.712 80.886 6.912 81.926 6.352C82.966 5.776 84.126 5.488 85.406 5.488C86.686 5.488 87.846 5.776 88.886 6.352C89.926 6.912 90.742 7.712 91.334 8.752C91.942 9.792 92.246 10.992 92.246 12.352C92.246 13.712 91.934 14.912 91.31 15.952C90.702 16.992 89.87 17.8 88.814 18.376C87.774 18.936 86.606 19.216 85.31 19.216ZM85.31 16.288C85.918 16.288 86.486 16.144 87.014 15.856C87.558 15.552 87.99 15.104 88.31 14.512C88.63 13.92 88.79 13.2 88.79 12.352C88.79 11.088 88.454 10.12 87.782 9.448C87.126 8.76 86.318 8.416 85.358 8.416C84.398 8.416 83.59 8.76 82.934 9.448C82.294 10.12 81.974 11.088 81.974 12.352C81.974 13.616 82.286 14.592 82.91 15.28C83.55 15.952 84.35 16.288 85.31 16.288ZM93.8467 12.304C93.8467 10.96 94.1107 9.768 94.6387 8.728C95.1827 7.688 95.9187 6.888 96.8467 6.328C97.7747 5.768 98.8067 5.488 99.9427 5.488C100.807 5.488 101.631 5.68 102.415 6.064C103.199 6.432 103.823 6.928 104.287 7.552V1.24H107.695V19H104.287V17.032C103.871 17.688 103.287 18.216 102.535 18.616C101.783 19.016 100.911 19.216 99.9187 19.216C98.7987 19.216 97.7747 18.928 96.8467 18.352C95.9187 17.776 95.1827 16.968 94.6387 15.928C94.1107 14.872 93.8467 13.664 93.8467 12.304ZM104.311 12.352C104.311 11.536 104.151 10.84 103.831 10.264C103.511 9.672 103.079 9.224 102.535 8.92C101.991 8.6 101.407 8.44 100.783 8.44C100.159 8.44 99.5827 8.592 99.0547 8.896C98.5267 9.2 98.0947 9.648 97.7587 10.24C97.4387 10.816 97.2787 11.504 97.2787 12.304C97.2787 13.104 97.4387 13.808 97.7587 14.416C98.0947 15.008 98.5267 15.464 99.0547 15.784C99.5987 16.104 100.175 16.264 100.783 16.264C101.407 16.264 101.991 16.112 102.535 15.808C103.079 15.488 103.511 15.04 103.831 14.464C104.151 13.872 104.311 13.168 104.311 12.352ZM112.68 4.12C112.088 4.12 111.592 3.936 111.192 3.568C110.808 3.184 110.616 2.712 110.616 2.152C110.616 1.592 110.808 1.128 111.192 0.759999C111.592 0.375999 112.088 0.183999 112.68 0.183999C113.272 0.183999 113.76 0.375999 114.144 0.759999C114.544 1.128 114.744 1.592 114.744 2.152C114.744 2.712 114.544 3.184 114.144 3.568C113.76 3.936 113.272 4.12 112.68 4.12ZM114.336 5.704V19H110.976V5.704H114.336ZM119.144 19.168C118.536 19.168 118.032 18.984 117.632 18.616C117.248 18.232 117.056 17.76 117.056 17.2C117.056 16.64 117.248 16.176 117.632 15.808C118.032 15.424 118.536 15.232 119.144 15.232C119.736 15.232 120.224 15.424 120.608 15.808C120.992 16.176 121.184 16.64 121.184 17.2C121.184 17.76 120.992 18.232 120.608 18.616C120.224 18.984 119.736 19.168 119.144 19.168ZM123.026 12.352C123.026 10.976 123.306 9.776 123.866 8.752C124.426 7.712 125.202 6.912 126.194 6.352C127.186 5.776 128.322 5.488 129.602 5.488C131.25 5.488 132.61 5.904 133.682 6.736C134.77 7.552 135.498 8.704 135.866 10.192H132.242C132.05 9.616 131.722 9.168 131.258 8.848C130.81 8.512 130.25 8.344 129.578 8.344C128.618 8.344 127.858 8.696 127.298 9.4C126.738 10.088 126.458 11.072 126.458 12.352C126.458 13.616 126.738 14.6 127.298 15.304C127.858 15.992 128.618 16.336 129.578 16.336C130.938 16.336 131.826 15.728 132.242 14.512H135.866C135.498 15.952 134.77 17.096 133.682 17.944C132.594 18.792 131.234 19.216 129.602 19.216C128.322 19.216 127.186 18.936 126.194 18.376C125.202 17.8 124.426 17 123.866 15.976C123.306 14.936 123.026 13.728 123.026 12.352ZM144.232 19.216C142.952 19.216 141.8 18.936 140.776 18.376C139.752 17.8 138.944 16.992 138.352 15.952C137.776 14.912 137.488 13.712 137.488 12.352C137.488 10.992 137.784 9.792 138.376 8.752C138.984 7.712 139.808 6.912 140.848 6.352C141.888 5.776 143.048 5.488 144.328 5.488C145.608 5.488 146.768 5.776 147.808 6.352C148.848 6.912 149.664 7.712 150.256 8.752C150.864 9.792 151.168 10.992 151.168 12.352C151.168 13.712 150.856 14.912 150.232 15.952C149.624 16.992 148.792 17.8 147.736 18.376C146.696 18.936 145.528 19.216 144.232 19.216ZM144.232 16.288C144.84 16.288 145.408 16.144 145.936 15.856C146.48 15.552 146.912 15.104 147.232 14.512C147.552 13.92 147.712 13.2 147.712 12.352C147.712 11.088 147.376 10.12 146.704 9.448C146.048 8.76 145.24 8.416 144.28 8.416C143.32 8.416 142.512 8.76 141.856 9.448C141.216 10.12 140.896 11.088 140.896 12.352C140.896 13.616 141.208 14.592 141.832 15.28C142.472 15.952 143.272 16.288 144.232 16.288ZM170.145 5.512C171.777 5.512 173.089 6.016 174.081 7.024C175.089 8.016 175.593 9.408 175.593 11.2V19H172.233V11.656C172.233 10.616 171.969 9.824 171.441 9.28C170.913 8.72 170.193 8.44 169.281 8.44C168.369 8.44 167.641 8.72 167.097 9.28C166.569 9.824 166.305 10.616 166.305 11.656V19H162.945V11.656C162.945 10.616 162.681 9.824 162.153 9.28C161.625 8.72 160.905 8.44 159.993 8.44C159.065 8.44 158.329 8.72 157.785 9.28C157.257 9.824 156.993 10.616 156.993 11.656V19H153.633V5.704H156.993V7.312C157.425 6.752 157.977 6.312 158.649 5.992C159.337 5.672 160.089 5.512 160.905 5.512C161.945 5.512 162.873 5.736 163.689 6.184C164.505 6.616 165.137 7.24 165.585 8.056C166.017 7.288 166.641 6.672 167.457 6.208C168.289 5.744 169.185 5.512 170.145 5.512Z" fill="white"/>
<path d="M72.671 19L68.975 12.472H67.391V19H64.031V2.248H70.319C71.615 2.248 72.719 2.48 73.631 2.944C74.543 3.392 75.223 4.008 75.671 4.792C76.135 5.56 76.367 6.424 76.367 7.384C76.367 8.488 76.047 9.488 75.407 10.384C74.767 11.264 73.815 11.872 72.551 12.208L76.559 19H72.671ZM67.391 9.952H70.199C71.111 9.952 71.791 9.736 72.239 9.304C72.687 8.856 72.911 8.24 72.911 7.456C72.911 6.688 72.687 6.096 72.239 5.68C71.791 5.248 71.111 5.032 70.199 5.032H67.391V9.952Z" fill="#1A6F8A"/>
</svg>
